# xmcd CD database file
#
# Track frame offsets:
#	150
#	19723
#	44102
#	65712
#	81035
#	104912
#
# Disc length: 1669 seconds
#
# Revision: 0
# Processed by: cddbd v1.5.2PL0 Copyright (c) Steve Scherf et al.
# Submitted via: CDex 1.70beta2
#
DISCID=54068306
DTITLE=Schotters Jazzhaufen - Woapts!
DYEAR=1900
DGENRE=Jazz
TTITLE0=Take The A Train
TTITLE1=Moanin
TTITLE2=Summertime
TTITLE3=Fever
TTITLE4=Wabash
TTITLE5=MasQueNada
EXTD=
EXTT0=
EXTT1=
EXTT2=
EXTT3=
EXTT4=
EXTT5=
PLAYORDER=
